<svg xmlns="http://www.w3.org/2000/svg" viewBox="0 0 1200 800" width="1200" height="800">
  <defs>
    <linearGradient id="bienestar-fondo" x1="0" y1="0" x2="1" y2="1">
      <stop offset="0" stop-color="#7B4FD1"/>
      <stop offset="1" stop-color="#00C9A7"/>
    </linearGradient>
    <radialGradient id="bienestar-brillo" cx="0.5" cy="0.35" r="0.55">
      <stop offset="0" stop-color="#ffffff" stop-opacity="0.35"/>
      <stop offset="1" stop-color="#ffffff" stop-opacity="0"/>
    </radialGradient>
    <pattern id="bienestar-puntos" width="28" height="28" patternUnits="userSpaceOnUse">
      <circle cx="2" cy="2" r="2" fill="#ffffff" fill-opacity="0.14"/>
    </pattern>
  </defs>
  <rect width="1200" height="800" fill="url(#bienestar-fondo)"/>
  <rect width="1200" height="800" fill="url(#bienestar-puntos)"/>
  <circle cx="1080" cy="120" r="220" fill="#ffffff" fill-opacity="0.08"/>
  <circle cx="110" cy="700" r="260" fill="#000000" fill-opacity="0.10"/>
  <rect width="1200" height="800" fill="url(#bienestar-brillo)"/>
  <path d="M370 150 h300 a30 30 0 0 1 30 30 v130 a30 30 0 0 1 -30 30 h-200 l-60 50 v-50 h-40 a30 30 0 0 1 -30 -30 v-130 a30 30 0 0 1 30 -30 z" fill="#ffffff"/>
    <path d="M560 260 h250 a30 30 0 0 1 30 30 v100 a30 30 0 0 1 -30 30 h-30 v46 l-56 -46 h-164 a30 30 0 0 1 -30 -30 v-100 a30 30 0 0 1 30 -30 z" fill="#1c162b" fill-opacity="0.85"/>
    <path d="M520 205 c-25 -30 -75 -10 -60 30 c10 25 60 55 60 55 c0 0 50 -30 60 -55 c15 -40 -35 -60 -60 -30 z" fill="#FF4FA3"/>
    <rect x="610" y="310" width="170" height="14" rx="7" fill="#00C9A7"/>
    <rect x="610" y="345" width="110" height="14" rx="7" fill="#B98AFF"/>
    <rect x="610" y="380" width="140" height="14" rx="7" fill="#ffffff" fill-opacity="0.6"/>
</svg>
