<svg xmlns="http://www.w3.org/2000/svg" viewBox="0 0 1200 800" width="1200" height="800">
  <defs>
    <linearGradient id="diseno-fondo" x1="0" y1="0" x2="1" y2="1">
      <stop offset="0" stop-color="#C2410C"/>
      <stop offset="1" stop-color="#FFB627"/>
    </linearGradient>
    <radialGradient id="diseno-brillo" cx="0.5" cy="0.35" r="0.55">
      <stop offset="0" stop-color="#ffffff" stop-opacity="0.35"/>
      <stop offset="1" stop-color="#ffffff" stop-opacity="0"/>
    </radialGradient>
    <pattern id="diseno-puntos" width="28" height="28" patternUnits="userSpaceOnUse">
      <circle cx="2" cy="2" r="2" fill="#ffffff" fill-opacity="0.14"/>
    </pattern>
  </defs>
  <rect width="1200" height="800" fill="url(#diseno-fondo)"/>
  <rect width="1200" height="800" fill="url(#diseno-puntos)"/>
  <circle cx="1080" cy="120" r="220" fill="#ffffff" fill-opacity="0.08"/>
  <circle cx="110" cy="700" r="260" fill="#000000" fill-opacity="0.10"/>
  <rect width="1200" height="800" fill="url(#diseno-brillo)"/>
  <g stroke="#ffffff" stroke-opacity="0.18" stroke-width="2">
      <path d="M300 90 V520"/><path d="M375 90 V520"/><path d="M450 90 V520"/><path d="M525 90 V520"/><path d="M600 90 V520"/><path d="M675 90 V520"/><path d="M750 90 V520"/><path d="M825 90 V520"/><path d="M900 90 V520"/>
      <path d="M300 90 H900"/><path d="M300 176 H900"/><path d="M300 262 H900"/><path d="M300 348 H900"/><path d="M300 434 H900"/><path d="M300 520 H900"/>
    </g>
    <path d="M420 200 C420 120 560 90 650 120 C760 150 800 230 760 300 C730 350 660 320 640 360 C620 410 680 440 620 470 C520 510 420 420 420 330 Z" fill="#ffffff"/>
    <circle cx="510" cy="200" r="30" fill="#FF5E5B"/>
    <circle cx="600" cy="170" r="30" fill="#00C9A7"/>
    <circle cx="690" cy="220" r="30" fill="#5A35E8"/>
    <circle cx="500" cy="300" r="30" fill="#FFB627"/>
    <circle cx="600" cy="420" r="26" fill="#C2410C" fill-opacity="0.2"/>
    <g transform="rotate(35 820 300)">
      <rect x="800" y="140" width="40" height="260" rx="6" fill="#1c162b"/>
      <rect x="800" y="140" width="40" height="40" rx="6" fill="#FF4FA3"/>
      <path d="M800 400 L840 400 L820 450 Z" fill="#FFF3D6"/>
    </g>
</svg>
